<svg width="1864" height="87" viewBox="0 0 1864 87" fill="none" xmlns="http://www.w3.org/2000/svg">
<path d="M30.96 56.64C33.6 56.64 46.96 56.64 46.96 56.64V65.92C46.96 65.92 37.6 65.92 31.2 65.92H30.96C4 65.92 4 65.92 4 37.2C4 37.2 4 37.2 4 37.04C4.16 8.4 4.16 8.4 30.96 8.4H31.2C37.6 8.4 49.2 8.4 49.2 8.4L45.6 17.6C45.6 17.6 33.6 17.6 30.96 17.6C14.4 17.6 14.4 17.76 14.4 37.2C14.4 56.64 14.4 56.64 30.96 56.64ZM56.9706 32.56H93.3706V40.96H67.7706V57.2H98.0106L95.2106 64L94.9706 64.4L94.4106 66H56.9706V32.56ZM94.4106 17.6H56.9706V8.56H98.0106L94.4106 17.6ZM138.048 42.96L152.848 66H140.448L126.688 42.96H119.888V66H108.848V33.76H134.288C143.248 33.76 143.088 33.76 143.088 26.16C143.088 16.96 143.088 16.96 134.288 16.96H109.088V8.56H135.488C152.848 8.56 152.848 8.8 152.848 25.2C152.848 42.8 152.848 42.96 138.048 42.96ZM159.621 8.56H213.861L210.261 17.6H192.261V66H181.221V17.6H163.221L159.621 8.56ZM234.475 8.4V65.92H223.435V8.4H234.475ZM258.236 65.84H247.436V32.08H283.756L280.316 40.56H258.236V65.84ZM247.436 8.4H288.396L284.796 17.28H247.436V8.4ZM309.788 8.4V65.92H298.748V8.4H309.788ZM350.101 56.64C352.741 56.64 366.101 56.64 366.101 56.64V65.92C366.101 65.92 356.741 65.92 350.341 65.92H350.101C323.141 65.92 323.141 65.92 323.141 37.2C323.141 37.2 323.141 37.2 323.141 37.04C323.301 8.4 323.301 8.4 350.101 8.4H350.341C356.741 8.4 368.341 8.4 368.341 8.4L364.741 17.6C364.741 17.6 352.741 17.6 350.101 17.6C333.541 17.6 333.541 17.76 333.541 37.2C333.541 56.64 333.541 56.64 350.101 56.64ZM371.961 65.68L399.161 8.24H399.401L426.601 65.68H415.561L399.401 32.48H399.161L383.001 65.68H371.961ZM417.981 8.56H472.221L468.621 17.6H450.621V66H439.581V17.6H421.581L417.981 8.56ZM479.314 32.56H515.714V40.96H490.114V57.2H520.354L517.554 64L517.314 64.4L516.754 66H479.314V32.56ZM516.754 17.6H479.314V8.56H520.354L516.754 17.6ZM552.276 31.76C573.236 31.76 573.236 31.92 573.236 48.8C573.236 65.28 573.236 65.44 548.036 65.84C543.476 65.84 535.636 65.84 529.236 65.84V57.6C542.676 57.6 544.276 57.6 547.876 57.6C562.676 57.44 563.076 57.44 563.076 49.44C563.076 40.4 563.076 40.4 552.276 40.4C529.236 40.4 529.476 40.4 529.476 25.76C529.476 8.48 529.476 8.64 556.436 8.64C561.076 8.64 566.676 8.48 573.076 8.48L570.276 16.88C556.836 16.88 560.036 16.88 556.436 16.88C539.876 16.88 539.876 17.12 539.876 25.12C539.636 31.52 539.636 31.76 552.276 31.76Z" fill="white"/>
<path d="M604 0H1134V86H604L632.446 42.5L604 0Z" fill="#6A7468"/>
<rect x="1133" width="731" height="41" fill="#6A7468"/>
</svg>
